<?xml version="1.0" encoding="UTF-8"?>
<svg width="494px" height="313px" viewBox="0 0 494 313" version="1.1" xmlns="http://www.w3.org/2000/svg" xmlns:xlink="http://www.w3.org/1999/xlink">
    <!-- Generator: Sketch 49.3 (51167) - http://www.bohemiancoding.com/sketch -->
    <title>logo-combined</title>
    <desc>Created with Sketch.</desc>
    <defs></defs>
    <g id="Page-4" stroke="none" stroke-width="1" fill="none" fill-rule="evenodd">
        <g id="A4-Copy-3" transform="translate(-174.000000, -129.000000)">
            <g id="logo-combined" transform="translate(174.000000, 133.000000)">
                <g id="logotype" transform="translate(0.283636, 172.273636)">
                    <path d="M104.014481,58.1080073 L103.715159,60.0457795 C98.3273318,60.0457795 95.6334585,61.3837517 95.6334585,64.0597362 C95.6334585,64.6133882 95.7831181,65.2593058 96.0824419,65.9975084 L112.245843,102.815181 L127.062295,65.9975084 C127.361618,65.2593058 127.511278,64.5672512 127.511278,63.9213239 C127.511278,62.9062953 126.987469,62.0758298 125.939836,61.4299025 C124.892203,60.7839752 123.894472,60.4148794 122.946614,60.3226041 C121.998755,60.2303287 120.676762,60.1380548 118.980594,60.0457795 L119.279916,58.1080073 C121.874055,58.3848332 125.615546,58.5232442 130.504501,58.5232442 C135.792553,58.5232442 140.032909,58.3848332 143.225696,58.1080073 L142.926374,60.0457795 C139.534038,60.0457795 137.114541,60.5994231 135.667809,61.7067271 C134.221078,62.814031 132.849198,64.7979208 131.552128,67.658456 L112.545166,114.164989 L104.613126,114.164989 L81.4156517,65.7206838 C80.4179059,63.5983513 79.0959125,62.1681051 77.4496319,61.4299025 C75.8033513,60.6916999 73.2341944,60.2303301 69.742084,60.0457795 L70.0414062,58.1080073 C80.0188644,58.5693839 86.8034342,58.8000688 90.3953192,58.8000688 C95.5835974,58.8000688 100.123273,58.5693839 104.014481,58.1080073 Z M170.31436,80.6692124 L197.253362,80.5308001 C197.353137,78.9621195 197.403023,77.4857364 197.403023,76.1016064 C197.403023,73.2410712 197.15359,70.9342226 196.654718,69.1809914 C195.856521,66.2281808 194.235208,63.8059898 191.790731,61.9143455 C189.346254,60.0227013 186.328118,59.0768934 182.736233,59.0768934 C179.044573,59.0768934 176.151154,61.0146462 174.055888,64.89021 C171.960622,68.7657738 170.713458,74.0253887 170.31436,80.6692124 Z M170.164698,82.7453969 L170.164698,85.7904675 C170.164698,92.4342912 171.486692,98.4320976 174.130718,103.784067 C176.774745,109.136036 180.591065,111.81198 185.579794,111.81198 C191.36672,111.81198 195.956282,110.243323 199.348618,107.105962 C202.740954,103.968601 205.085621,100.692876 206.382691,97.2786885 L210.573202,100.046935 C209.076583,103.553397 206.183164,106.944465 201.892857,110.220239 C197.60255,113.496013 191.965371,115.133875 184.98115,115.133875 C176.50031,115.133875 169.441365,112.688616 163.804101,107.798023 C158.166837,102.907431 155.348247,95.8023373 155.348247,86.482529 C155.348247,81.0382846 156.321035,76.263108 158.266639,72.1568558 C160.212243,68.0506037 162.806344,64.9132896 166.049018,62.7448193 C169.291691,60.5763491 172.55926,58.9846236 175.851821,57.9695949 C179.144382,56.9545663 182.536667,56.4470596 186.028778,56.4470596 C191.416605,56.4470596 196.430203,57.7850318 201.069721,60.4610164 C205.709239,63.1370009 208.727375,67.4738763 210.124219,73.4717727 C210.523317,75.3172793 210.722863,77.1627582 210.722863,79.0082648 C210.722863,80.0232934 210.672977,81.2228547 210.573202,82.6069846 L170.164698,82.7453969 Z M265.798157,55.2013489 C269.589591,55.2013489 272.507954,56.2394308 274.553333,58.3156257 C276.598712,60.3918206 277.621386,63.3676553 277.621386,67.2432191 C277.621386,69.5501024 276.773315,71.6724031 275.077147,73.610185 C273.380979,75.5479669 271.435404,76.5168433 269.240363,76.5168433 C267.64397,76.5168433 265.997714,75.8709257 264.301546,74.5790711 C262.605378,73.2872165 261.70742,71.7646964 261.607646,70.0114652 C261.607646,67.9814079 263.054355,66.0436551 265.947818,64.1981485 C265.648494,63.3676705 265.124686,62.537205 264.376376,61.7067271 C263.628067,60.8762491 262.455733,60.4610164 260.85934,60.4610164 C258.065652,60.4610164 255.396722,61.868194 252.85247,64.6825916 C250.308218,67.4969891 248.487359,70.2882759 247.389839,73.0565358 L245.743566,77.3473171 L246.042889,106.96755 C246.142663,108.813056 249.584835,110.012617 256.369506,110.566269 L256.369506,112.780866 C252.178974,112.50404 246.741341,112.365629 240.056444,112.365629 C233.770645,112.365629 228.582445,112.50404 224.491687,112.780866 L224.491687,110.566269 C225.988305,110.473994 227.958824,110.012624 230.403301,109.182146 C232.847778,108.351668 234.069999,107.613477 234.069999,106.96755 L234.069999,61.1530779 C232.772929,60.4148752 229.58019,59.9535055 224.491687,59.7689549 L224.192364,57.554358 C229.879516,57.554358 236.664085,56.6316186 244.546277,54.786112 L246.19255,71.3955882 C247.788943,67.427749 250.233384,63.7367912 253.525945,60.3226041 C256.818506,56.9084169 260.909202,55.2013489 265.798157,55.2013489 Z M328.206846,59.353718 L312.342767,59.353718 L312.342767,97.0018639 C312.342767,100.969703 313.016235,104.153154 314.363192,106.552313 C315.710149,108.951471 317.531008,110.151033 319.825823,110.151033 C322.419962,110.151033 324.590027,109.182156 326.336082,107.244374 C328.082137,105.306592 329.70345,102.399963 331.200068,98.5243992 L334.492613,100.046935 C333.594642,102.261542 332.796457,103.96861 332.098035,105.16819 C331.399613,106.367769 330.401882,107.751878 329.104813,109.320559 C327.807743,110.889239 326.211374,112.019595 324.315657,112.71166 C322.41994,113.403725 320.125159,113.749752 317.431245,113.749752 C311.44477,113.749752 306.954981,112.181095 303.961744,109.043734 C302.5649,107.659604 301.567169,105.698783 300.968521,103.161211 C300.369874,100.62364 300.070554,96.9096135 300.070554,92.0190211 L300.070554,59.353718 L287.49902,59.353718 L287.49902,57.554358 C289.89361,57.554358 292.811973,56.9315089 296.254196,55.685792 C299.696419,54.440075 302.06603,53.0790343 303.363099,51.6026291 C304.660169,50.0339485 305.957219,47.7963053 307.254288,44.8896325 C308.551358,41.9829596 309.199883,39.0993988 309.199883,36.2388636 L312.642089,36.2388636 C312.242991,39.1916742 312.043444,43.7130975 312.043444,49.8032692 L312.043444,56.0318227 L329.104813,55.7549981 L328.206846,59.353718 Z M377.146034,111.673568 C382.533861,111.673568 386.724331,109.366719 389.717568,104.752953 C392.710805,100.139186 394.207402,93.4954623 394.207402,84.8215814 C394.207402,77.6241058 392.611032,71.326409 389.418246,65.9283023 C386.225459,60.5301955 382.03499,57.8311826 376.846711,57.8311826 C373.354601,57.8311826 370.361408,58.7077851 367.867044,60.4610164 C365.372679,62.2142476 363.551821,64.5903017 362.404413,67.5892499 C361.257005,70.5881981 360.408934,73.5640328 359.860174,76.5168433 C359.311414,79.4696539 359.037038,82.560831 359.037038,85.7904675 C359.037038,93.4493198 360.633407,99.6778111 363.826194,104.476128 C367.01898,109.274445 371.458882,111.673568 377.146034,111.673568 Z M375.499761,55.0629366 C384.379699,55.0629366 391.912567,57.9234289 398.098591,63.6444993 C404.284615,69.3655697 407.377581,75.9170198 407.377581,83.2990461 C407.377581,92.249753 404.783481,99.793148 399.595202,105.929457 C394.406924,112.065767 386.774283,115.133875 376.69705,115.133875 C355.744388,115.133875 345.268214,104.568509 345.268214,83.4374584 C345.268214,75.2249541 348.36118,68.4428192 354.547204,63.0908501 C360.733228,57.738881 367.717344,55.0629366 375.499761,55.0629366 Z M420.248437,58.9384811 C421.146409,59.0307564 422.094253,59.0768934 423.091999,59.0768934 C428.679375,59.0768934 434.565987,58.1541539 440.752011,56.3086473 L441.9493,70.0114652 C448.235099,61.1530336 454.969782,56.6777473 462.153552,56.5854719 C465.545888,56.5854719 468.564024,57.0929786 471.20805,58.1080073 C473.852077,59.1230359 475.922368,60.3918026 477.418987,61.9143455 C478.915606,63.4368885 480.137826,65.2131619 481.085685,67.2432191 C482.033543,69.2732764 482.682068,71.1879607 483.031279,72.9873296 C483.38049,74.7866986 483.555093,76.609109 483.555093,78.4546155 L483.555093,106.829137 C483.555093,107.751891 484.75237,108.605425 487.14696,109.389765 C489.54155,110.174105 491.636785,110.566269 493.432727,110.566269 L493.432727,112.780866 C483.355495,112.411765 477.119677,112.227217 474.725087,112.227217 C469.636583,112.227217 465.146794,112.411765 461.255586,112.780866 L461.255586,110.566269 C463.251077,110.473994 465.396198,110.058761 467.691014,109.320559 C469.985829,108.582356 471.13322,107.798028 471.13322,106.96755 C471.232994,106.96755 471.282881,97.6017442 471.282881,78.8698525 C471.282881,73.7947094 470.310093,69.6885188 468.364489,66.5511576 C466.418885,63.4137964 463.500522,61.8451394 459.609313,61.8451394 C456.416527,61.8451394 452.974355,63.2753855 449.282696,66.1359207 C445.591036,68.9964559 443.046822,72.5028658 441.649978,76.6552556 L441.649978,107.521199 C441.649978,108.997604 445.142036,110.012617 452.126257,110.566269 L452.126257,112.780866 C448.035499,112.50404 442.597866,112.365629 435.813194,112.365629 C429.327847,112.365629 424.139646,112.50404 420.248437,112.780866 L420.248437,110.566269 C422.243929,110.566269 424.314221,110.197174 426.459374,109.458971 C428.604528,108.720768 429.677088,107.890303 429.677088,106.96755 C429.876637,101.338755 429.976411,93.910702 429.976411,84.6831691 C429.976411,75.9170129 429.876637,68.7196452 429.677088,63.0908501 C427.781371,62.1680968 424.638519,61.5221792 420.248437,61.1530779 L420.248437,58.9384811 Z" id="overton" fill="#000000"></path>
                    <polygon id="Rectangle-3" fill="#FFFFFF" points="312.12 56.0059353 312.923636 55.9015909 312.923636 59.3882955 312.385945 59.3882955"></polygon>
                    <path d="M30.2315471,55.3332658 C39.1114849,55.3332658 46.6443529,58.193758 52.8303769,63.9148284 C59.016401,69.6358988 62.1093666,76.1873489 62.1093666,83.5693752 C62.1093666,92.5200821 59.5152664,100.063477 54.3269882,106.199787 C49.1387099,112.336096 41.5060689,115.404205 31.4288361,115.404205 C10.4761739,115.404205 0,104.838838 0,83.7077875 C0,75.4952833 3.09296564,68.7131483 9.27898972,63.3611792 C15.4650138,58.0092102 22.4491298,55.3332658 30.2315471,55.3332658 Z M31.8778195,111.673568 C37.2656469,111.673568 41.4561165,109.366719 44.449354,104.752953 C47.4425914,100.139186 48.9391877,93.4954623 48.9391877,84.8215814 C48.9391877,77.6241058 47.3428183,71.326409 44.1500317,65.9283023 C40.9572451,60.5301955 36.7667755,57.8311826 31.5784973,57.8311826 C28.0863869,57.8311826 25.0931943,58.7077851 22.5988298,60.4610164 C20.1044652,62.2142476 18.2836064,64.5903017 17.1361987,67.5892499 C15.9887911,70.5881981 15.1407198,73.5640328 14.5919596,76.5168433 C14.0431994,79.4696539 13.7688234,82.560831 13.7688234,85.7904675 C13.7688234,93.4493198 15.3651928,99.6778111 18.5579794,104.476128 C21.750766,109.274445 26.1906683,111.673568 31.8778195,111.673568 Z" id="Combined-Shape" fill="#000000"></path>
                    <polygon id="Line" fill="#FFFFFF" fill-rule="nonzero" points="33.0727273 131.808864 29.0545455 131.808864 29.0545455 38.3064151 33.0727273 38.3064151"></polygon>
                    <polygon id="Line-Copy" fill="#FFFFFF" fill-rule="nonzero" points="379.316364 129.693977 375.298182 129.693977 375.298182 36.1915287 379.316364 36.1915287"></polygon>
                    <polygon id="Line-Copy-5" fill="#FFFFFF" fill-rule="nonzero" points="445.770909 91.6831818 441.752727 91.6831818 441.752727 -1.81926672 445.770909 -1.81926672"></polygon>
                    <polygon id="Line-Copy-2" fill="#FFFFFF" fill-rule="nonzero" points="186.505455 131.808864 182.487273 131.808864 182.487273 100.038233 186.505455 100.038233"></polygon>
                    <polygon id="Line-Copy-3" fill="#FFFFFF" fill-rule="nonzero" points="186.690909 74.8784091 182.672727 74.8784091 182.672727 43.1077787 186.690909 43.1077787"></polygon>
                    <polygon id="Line-Copy-4" fill="#FFFFFF" fill-rule="nonzero" points="316.509091 136.534448 312.490909 136.534448 312.490909 43.1077787 316.509091 43.1077787"></polygon>
                    <polygon id="Line" fill="#FFFFFF" fill-rule="nonzero" points="122.813404 117.504268 119.077849 118.873042 109.684778 96.9566409 113.420333 95.5878673"></polygon>
                    <polygon id="Rectangle" fill="#FFFFFF" points="170.332593 80.6674328 176.985455 80.48 176.985455 82.995 170.185455 82.7709178"></polygon>
                    <polygon id="Rectangle-2" fill="#FFFFFF" points="245.99608 68.2947016 248.818182 65.1042045 248.818182 78.2507955 245.727273 78.2507955"></polygon>
                </g>
                <g id="logo" transform="translate(154.087273, 0.453409)" stroke="#000000">
                    <ellipse id="Oval" stroke-width="8" cx="92.9127273" cy="85.9101136" rx="92.9127273" ry="85.9101136"></ellipse>
                    <ellipse id="Oval" stroke-width="9.12" cx="92.9127273" cy="85.9101136" rx="59.4690909" ry="54.9870455"></ellipse>
                    <path d="M152.786415,91.4545455 C155.036248,74.145058 150.791044,57.1807666 140.050803,40.5616714 C129.310561,23.9425761 113.597869,10.7459205 92.9127273,0.971704545" id="Line-2" stroke-width="8" stroke-linecap="square"></path>
                    <path d="M92.3282328,170.905682 C94.5780665,153.596194 90.3328626,136.631903 79.5926209,120.012808 C68.8523793,103.393712 53.1396875,90.1970569 32.4545455,80.4228409" id="Line-2" stroke-width="8" stroke-linecap="square" transform="translate(62.683636, 125.664261) scale(-1, -1) translate(-62.683636, -125.664261) "></path>
                </g>
            </g>
        </g>
    </g>
</svg>